<?xml version="1.0" standalone="no"?>
<!DOCTYPE svg PUBLIC "-//W3C//DTD SVG 20010904//EN"
 "http://www.w3.org/TR/2001/REC-SVG-20010904/DTD/svg10.dtd">
<svg version="1.0" xmlns="http://www.w3.org/2000/svg"
 width="128.000000pt" height="128.000000pt" viewBox="0 0 128.000000 128.000000"
 preserveAspectRatio="xMidYMid meet">

<g transform="translate(0.000000,128.000000) scale(0.100000,-0.100000)"
fill="#000000" stroke="none">
<path d="M5 1059 c-4 -11 -3 -25 2 -30 5 -5 78 -8 164 -7 l154 3 0 25 0 25
-157 3 c-152 2 -157 2 -163 -19z"/>
<path d="M404 1066 c-10 -26 4 -48 28 -44 17 2 23 10 23 28 0 18 -6 26 -23 28
-13 2 -25 -3 -28 -12z"/>
<path d="M535 1060 c-3 -11 -3 -24 0 -30 4 -6 136 -10 370 -10 234 0 366 4
370 10 3 6 3 19 0 30 -6 19 -16 20 -370 20 -354 0 -364 -1 -370 -20z"/>
<path d="M4 655 c-4 -8 -4 -22 0 -30 5 -13 29 -15 163 -13 l158 3 0 25 0 25
-158 3 c-134 2 -158 0 -163 -13z"/>
<path d="M404 656 c-10 -26 4 -48 28 -44 33 4 33 52 0 56 -13 2 -25 -3 -28
-12z"/>
<path d="M536 655 c-3 -8 -3 -22 0 -30 5 -13 53 -15 373 -13 l366 3 0 25 0 25
-366 3 c-320 2 -368 0 -373 -13z"/>
<path d="M5 250 c-3 -6 -3 -19 0 -30 6 -20 14 -20 163 -18 l157 3 0 25 0 25
-157 3 c-100 2 -159 -1 -163 -8z"/>
<path d="M404 246 c-10 -26 4 -48 28 -44 17 2 23 10 23 28 0 18 -6 26 -23 28
-13 2 -25 -3 -28 -12z"/>
<path d="M535 250 c-3 -6 -3 -19 0 -30 6 -19 16 -20 370 -20 354 0 364 1 370
20 3 11 3 24 0 30 -8 14 -732 14 -740 0z"/>
</g>
</svg>
